<svg xmlns="http://www.w3.org/2000/svg" width="68" height="80" viewBox="0 0 68 80" fill="none"><path d="M15.2892 65.4367L30.3682 58.9656L26.0611 66.571L28.3853 75.6483L15.2892 65.4367Z" fill="#F79C53"></path><path d="M23.7905 65.8621C23.7905 65.8621 24.2323 66.4198 25.2151 66.953C25.7065 67.2195 26.3236 67.4483 26.9407 67.677C27.6835 67.868 28.4644 68.1856 29.333 68.3388C30.2015 68.4919 31.2338 68.7339 32.3538 68.8115C33.4737 68.889 34.6813 68.8021 35.9764 68.5507C37.2716 68.2994 38.6164 67.7569 39.9611 67.2144C40.5515 66.8987 41.2296 66.4186 41.782 65.9762C42.3344 65.5339 42.9744 64.9271 43.4887 64.3581C43.6639 64.0292 44.0906 63.6247 44.3915 63.258C44.7801 62.7268 45.043 62.2334 45.5192 61.5377C45.8696 60.8799 46.182 60.0954 46.5821 59.1464C46.8564 58.2353 47.1307 57.3241 47.3669 56.2863C47.8394 54.2107 48.0337 51.6662 47.9386 49.0707C47.9386 49.0707 47.9005 48.9441 47.8624 48.8174C47.8624 48.8174 47.8244 48.6907 47.7863 48.5641C47.7482 48.4374 47.7101 48.3108 47.6339 48.0575C47.5958 47.9308 47.5197 47.6775 47.4816 47.5508C47.4435 47.4242 47.3673 47.1709 47.3292 47.0442C47.2911 46.9175 47.215 46.6642 47.1769 46.5376C47.1388 46.4109 47.0626 46.1576 47.0245 46.0309C46.9102 45.651 46.8341 45.3977 46.8455 44.9799C46.5523 43.5488 46.259 42.1178 45.8019 40.5979C45.3449 39.078 44.7621 37.5959 44.0536 36.1517C43.3452 34.7074 42.4729 33.1742 41.513 31.8056C40.5531 30.4369 39.4675 29.106 38.1305 27.8507C36.7934 26.5955 35.4945 25.4669 33.9822 24.5405C32.47 23.6142 30.832 22.7256 28.9807 22.0394L28.855 22.0772C28.855 22.0772 28.8169 21.9505 28.6531 21.8616L28.3255 21.6839C28.3255 21.6839 27.8722 21.544 27.7084 21.4552C27.457 21.5308 27.2551 21.3153 26.9656 21.2642C26.7141 21.3398 26.5123 21.1243 26.2227 21.0733C25.9713 21.1489 25.7694 20.9334 25.4799 20.8823L25.3542 20.9201C25.3542 20.9201 25.3542 20.9201 25.1904 20.8313C25.1904 20.8313 25.1904 20.8313 25.0647 20.8691C24.4857 20.767 23.9448 20.7915 23.4038 20.8161C22.901 20.9673 22.3601 20.9918 21.7696 21.3075C21.5182 21.3831 21.1411 21.4965 20.9658 21.8254C20.5887 21.9389 20.4134 22.2678 20.1125 22.6345C19.9372 22.9634 19.762 23.2923 19.6248 23.7479C19.6629 23.8746 19.6134 24.1657 19.5258 24.3302C19.5258 24.3302 19.5639 24.4568 19.602 24.5835C19.602 24.5835 19.64 24.7101 19.6781 24.8368C19.7924 25.2168 19.8686 25.4701 19.9828 25.85C20.059 26.1034 20.1733 26.4833 20.3752 26.6988C20.3752 26.6988 20.4513 26.9522 20.4894 27.0788L20.5275 27.2055L20.8056 27.6743C20.8056 27.6743 20.8056 27.6743 20.8437 27.801L21.1217 28.2698C21.1217 28.2698 21.1979 28.5231 21.3617 28.612C21.4379 28.8653 21.7274 28.9163 21.9293 29.1318C22.6606 29.7406 23.392 30.3493 24.1234 30.958C24.9805 31.529 25.7994 31.9732 26.6184 32.4175C27.4374 32.8618 28.344 33.1416 29.1249 33.4592C30.0315 33.739 30.8125 34.0566 31.681 34.2098C32.5495 34.3629 33.4561 34.6427 34.3246 34.7959C35.1932 34.949 36.1493 34.9377 36.9797 34.9642C37.2312 34.8886 37.395 34.9775 37.6464 34.9019L38.0235 34.7885C38.0235 34.7885 38.313 34.8395 38.4387 34.8017C38.6901 34.7261 38.8159 34.6883 39.1054 34.7394C39.3568 34.6638 39.4825 34.6259 39.7339 34.5503C40.6139 34.2857 41.5319 34.1478 42.2481 33.7943C43.1281 33.5297 43.97 33.1384 44.6481 32.6582C46.168 31.7868 47.448 30.5732 48.4385 29.3086C49.429 28.044 50.2176 26.5638 50.8805 25.1215C51.5433 23.6792 51.9167 22.1858 52.0387 20.768C52.0997 20.0591 52.1606 19.3502 52.2216 18.6413C52.1074 18.2613 52.2826 17.9324 52.1683 17.5524C52.1303 17.4258 52.0922 17.2991 52.016 17.0458C51.9779 16.9191 51.9398 16.7925 51.8636 16.5392C51.7875 16.2859 51.7989 15.8681 51.8484 15.577C51.7723 15.3236 51.658 14.9437 51.7075 14.6526C51.7075 14.6526 51.6694 14.5259 51.6314 14.3992C51.6314 14.3992 51.5933 14.2726 51.5552 14.1459C51.5171 14.0193 51.479 13.8926 51.4028 13.6393C51.3647 13.5126 51.3267 13.386 51.2886 13.2593C51.2505 13.1327 51.2124 13.006 51.1743 12.8794C51.1362 12.7527 51.0981 12.626 51.06 12.4994C51.06 12.4994 51.022 12.3727 50.9839 12.2461C50.9839 12.2461 50.9458 12.1194 50.9077 11.9927C50.8315 11.7394 50.7553 11.4861 50.6411 11.1061C50.603 10.9795 50.5649 10.8528 50.5268 10.7262C50.4887 10.5995 50.4506 10.4729 50.4125 10.3462C50.3745 10.2195 50.3364 10.0929 50.2983 9.96623C50.2602 9.83957 50.2221 9.71291 50.184 9.58626C49.4489 7.59754 48.5385 5.93775 47.7424 4.65792C47.3197 1.88471 46.2722 0.680491 46.1465 0.718294C46.0208 0.756097 47.0188 2.25143 48.3595 4.88668C49.0299 6.20431 49.7765 7.77525 50.3859 9.80177C50.3859 9.80177 50.4621 10.0551 50.5002 10.1817C50.5002 10.1817 50.5763 10.4351 50.6144 10.5617C50.6144 10.5617 50.6906 10.815 50.7287 10.9417C50.7668 11.0683 50.8049 11.195 50.843 11.3217C50.9191 11.575 50.9953 11.8283 51.0715 12.0816C51.0715 12.0816 51.1096 12.2083 51.1477 12.3349C51.1477 12.3349 51.1857 12.4616 51.2238 12.5882C51.2619 12.7149 51.3 12.8415 51.3381 12.9682C51.3762 13.0949 51.4143 13.2215 51.4524 13.3482C51.4905 13.4748 51.5285 13.6015 51.5666 13.7281C51.6047 13.8548 51.6428 13.9815 51.6809 14.1081C51.6809 14.1081 51.719 14.2348 51.7571 14.3614C51.7571 14.3614 51.7952 14.4881 51.8332 14.6148C51.9094 14.8681 51.9856 15.1214 51.9742 15.5392C52.0503 15.7925 52.0389 16.2102 51.9893 16.5014C52.0274 16.628 52.0655 16.7547 52.1036 16.8813C52.1417 17.008 52.1798 17.1347 52.0922 17.2991C52.1683 17.5524 52.0312 18.008 52.1074 18.2613C52.0464 18.9702 51.9473 19.5525 51.8863 20.2613C51.6006 21.5903 51.1891 22.957 50.6138 24.2349C50.0386 25.5128 49.2995 26.7018 48.2709 27.8398C47.3681 28.94 46.1757 29.9891 44.8691 30.6582C43.6005 31.454 42.092 31.9077 40.5949 31.9435C40.4692 31.9813 40.2178 32.0569 40.0921 32.0947C39.9664 32.1325 39.715 32.2082 39.5512 32.1193C39.5512 32.1193 39.4255 32.1571 39.2998 32.1949L39.0483 32.2705C39.0483 32.2705 38.6331 32.2573 38.4693 32.1684C37.6389 32.1419 36.9342 32.0776 36.0656 31.9245C35.1971 31.7713 34.4543 31.5803 33.7115 31.3894C32.9687 31.1984 32.0621 30.9186 31.2811 30.601C29.7193 29.9658 28.2833 29.2927 26.8967 28.3286C26.2034 27.8465 25.6358 27.3266 25.0683 26.8068C25.0302 26.6801 24.8283 26.4646 24.6645 26.3757C24.6645 26.3757 24.6264 26.2491 24.5883 26.1224L24.5121 25.8691L24.3483 25.7803C24.3483 25.7803 24.3483 25.7803 24.3103 25.6536L24.2341 25.4003L24.0703 25.3114L24.0322 25.1848C24.0322 25.1848 23.9941 25.0581 23.956 24.9315C23.9179 24.8048 23.8798 24.6781 23.8418 24.5515L23.7656 24.2982C23.7656 24.2982 23.7656 24.2982 23.8913 24.2604C23.8913 24.2604 24.017 24.2226 24.1427 24.1848C24.3941 24.1092 24.6456 24.0336 25.0227 23.9201C25.2741 23.8445 25.6893 23.8578 26.0169 24.0355L26.1426 23.9977C26.1426 23.9977 26.5959 24.1376 26.7597 24.2264C26.8854 24.1886 27.213 24.3664 27.3387 24.3285C27.4645 24.2907 27.7921 24.4685 27.9559 24.5573C28.0816 24.5195 28.4092 24.6972 28.573 24.7861L28.8244 24.7105L28.9006 24.9638C30.4624 25.599 31.9365 26.3987 33.1593 27.274C34.5078 28.1115 35.8067 29.2401 36.8161 30.3177C37.9513 31.3574 38.8731 32.5994 39.7949 33.8414C41.5128 36.3633 42.7279 39.0363 43.5277 41.6962C44.3276 44.356 44.7122 47.0025 44.8569 49.3069C44.8835 49.8513 44.9101 50.3958 44.8111 50.978C44.8377 51.5224 44.7386 52.1047 44.7653 52.6491C44.6548 53.6491 44.5443 54.6491 44.2699 55.5603C44.1213 56.4336 43.8089 57.2181 43.4965 58.0026C43.1841 58.7871 42.9594 59.4072 42.6965 59.9006C42.4336 60.3939 42.1708 60.8873 41.8698 61.2541C41.5689 61.6208 41.3936 61.9497 41.1803 62.152C40.7536 62.5565 40.327 62.961 40.026 63.3277C39.5993 63.7323 39.1346 64.0101 38.6698 64.288C37.7403 64.8437 36.7727 65.2728 35.729 65.4486C34.7233 65.751 33.8052 65.889 32.7234 65.9381C31.7672 65.9494 30.8111 65.9607 29.9807 65.9342C28.3198 65.8812 26.9103 65.7526 25.8285 65.8017C24.8723 65.813 24.2057 65.8754 24.1562 66.1665L23.7905 65.8621Z" fill="#F79C53"></path><path d="M37.4852 68.0971C37.4852 68.0971 37.7366 68.0215 37.988 67.9459C38.7423 67.719 39.3708 67.53 39.9232 67.0877C40.6393 66.7342 41.1917 66.2919 41.7441 65.8495C42.2965 65.4072 42.9365 64.8004 43.4508 64.2314C43.6641 64.0292 43.965 63.6625 44.3536 63.1313C44.7422 62.6001 45.1308 62.0689 45.4813 61.4111C45.8317 60.7532 46.2698 59.9309 46.5442 59.0198C46.8185 58.1086 47.2185 57.1596 47.329 56.1596C47.5652 55.1218 47.7634 53.9573 47.7977 52.704C47.832 51.4507 47.8664 50.1974 47.8626 48.8174C47.8626 48.8174 47.8245 48.6907 47.7865 48.5641L47.7103 48.3107L47.6836 47.7663C47.6836 47.7663 47.6836 47.7663 47.6455 47.6397L47.5694 47.3863C47.5313 47.2597 47.4551 47.0064 47.417 46.8797L47.3408 46.6264C47.3408 46.6264 47.3028 46.4997 47.2647 46.3731C47.2647 46.3731 47.1885 46.1198 47.1504 45.9931C47.1504 45.9931 47.1504 45.9931 47.1123 45.8664L47.0361 45.6131C46.96 45.3598 46.8838 45.1065 46.8076 44.8532C46.5144 43.4222 46.183 41.8645 45.764 40.4712C45.307 38.9513 44.7242 37.4693 44.0157 36.025C43.6234 35.1762 43.2311 34.3274 42.7511 33.643C43.5054 33.4162 44.3473 33.0249 45.0254 32.5448C45.7034 32.0647 46.5072 31.5467 47.1472 30.9399C47.7872 30.3332 48.3015 29.7642 48.9034 29.0307C49.8939 27.7661 50.7206 26.4126 51.3454 24.8436C51.8826 23.4391 52.2559 21.9457 52.5036 20.4901C52.5646 19.7812 52.7513 19.0345 52.6866 18.3634C52.5723 17.9834 52.7475 17.6545 52.6333 17.2745L52.4809 16.7679L52.6066 16.7301C52.5685 16.6034 52.5305 16.4768 52.4924 16.3501L52.3781 15.9701C52.3781 15.9701 52.3895 15.5524 52.4772 15.3879L52.2106 14.5013L52.3363 14.4635C52.3363 14.4635 52.3363 14.4635 52.2982 14.3368L52.222 14.0835C52.222 14.0835 52.1458 13.8302 52.1077 13.7036L51.9554 13.1969L51.8411 12.817L51.6888 12.3103C51.6888 12.3103 51.6888 12.3103 51.6507 12.1837C51.5745 11.9304 51.4983 11.677 51.3841 11.2971L51.3079 11.0438C51.3079 11.0438 51.2698 10.9171 51.2317 10.7904C51.2317 10.7904 51.1174 10.4105 51.0794 10.2838C51.0794 10.2838 51.0413 10.1572 51.0032 10.0305C51.0032 10.0305 51.0032 10.0305 50.9651 9.90384C50.6985 9.01723 50.1424 8.07958 49.75 7.23078C49.3958 6.50864 49.0416 5.7865 48.5235 4.9755C47.6893 3.56902 47.0075 2.66917 46.6037 2.23815C46.5124 1.02263 46.2724 0.680456 46.1467 0.718259C46.1467 0.718259 46.299 1.22489 46.779 1.90923C47.1332 2.63137 47.6893 3.56902 48.3597 4.88665C49.1444 6.58425 49.8909 8.15519 50.3861 9.80173C50.3861 9.80173 50.3861 9.80173 50.4242 9.92839C50.4242 9.92839 50.4623 10.055 50.5003 10.1817C50.5003 10.1817 50.5765 10.435 50.6146 10.5617C50.6146 10.5617 50.6527 10.6883 50.6908 10.815L50.767 11.0683C50.767 11.0683 50.805 11.195 50.8431 11.3216C50.8431 11.3216 50.9955 11.8283 51.0717 12.0816C51.0717 12.0816 51.0717 12.0816 51.1098 12.2082C51.1098 12.2082 51.1478 12.3349 51.1859 12.4615L51.3002 12.8415C51.3002 12.8415 51.3764 13.0948 51.4145 13.2215C51.4525 13.3481 51.4906 13.4748 51.5287 13.6015L51.643 13.9814L51.7192 14.2347C51.7192 14.2347 51.7192 14.2347 51.7572 14.3614L52.0239 15.248C52.0239 15.248 51.9248 15.8302 51.8372 15.9947C51.8372 15.9947 51.9514 16.3747 51.9895 16.5013L52.1038 16.8813C52.1038 16.8813 51.9171 17.628 51.9933 17.8813C51.8942 18.4636 51.8332 19.1724 51.7723 19.8813C51.4865 21.2103 51.075 22.577 50.4998 23.8549C49.9245 25.1328 49.0978 26.4863 48.1569 27.4598C47.6426 28.0288 47.1283 28.5977 46.5759 29.0401C46.0235 29.4824 45.3455 29.9625 44.755 30.2782C44.0388 30.6317 43.1969 31.023 42.317 31.2876C41.319 29.7923 40.1077 28.4992 38.9344 27.3328C38.3288 26.6862 37.5974 26.0775 36.9041 25.5954C36.1728 24.9867 35.4795 24.5046 34.6605 24.0604C33.1101 23.0074 31.3845 22.2833 29.6589 21.5592L29.5332 21.597L29.4951 21.4703L29.1675 21.2926C29.1675 21.2926 28.7142 21.1527 28.5504 21.0639C28.299 21.1395 28.0971 20.924 27.8076 20.8729C27.8076 20.8729 27.8076 20.8729 27.6819 20.9107C27.5562 20.9485 27.3924 20.8597 27.2286 20.7708L27.1029 20.8086C27.1029 20.8086 26.7753 20.6309 26.6115 20.542L26.4858 20.5798C26.4858 20.5798 26.4858 20.5798 26.322 20.491C26.322 20.491 26.322 20.491 26.1963 20.5288C25.6173 20.4267 25.0763 20.4512 24.5354 20.4758C23.9069 20.6648 23.3659 20.6894 22.9012 20.9672C22.5241 21.0807 22.2726 21.1563 22.0974 21.4852C21.7203 21.5986 21.545 21.9275 21.2441 22.2942C21.0688 22.6232 20.8936 22.9521 20.7564 23.4077C20.7945 23.5343 20.745 23.8254 20.6574 23.9899C20.6574 23.9899 20.6954 24.1165 20.7335 24.2432C20.7335 24.2432 20.7716 24.3699 20.8097 24.4965C20.924 24.8765 21.0001 25.1298 21.1144 25.5098C21.1906 25.7631 21.2668 26.0164 21.5067 26.3586C21.5448 26.4852 21.5829 26.6119 21.621 26.7386L21.7353 27.1185L21.8495 27.4985L21.9752 27.4607L22.2533 27.9295C22.2533 27.9295 22.2914 28.0562 22.4552 28.145C22.4552 28.145 22.4933 28.2717 22.5314 28.3983C22.5694 28.525 22.7332 28.6139 22.897 28.7027C23.2627 29.0071 23.6284 29.3114 23.9941 29.6158C24.3598 29.9202 24.7255 30.2245 25.2169 30.4911C25.9101 30.9732 26.7672 31.5441 27.7119 31.9506C28.5309 32.3949 29.4375 32.6747 30.2184 32.9923C31.125 33.2721 31.9059 33.5897 32.7745 33.7429C33.6811 34.0227 34.5496 34.1758 35.4181 34.329C36.2866 34.4821 37.2428 34.4708 38.0732 34.4973C38.0732 34.4973 38.0732 34.4973 38.1989 34.4595C38.3246 34.4217 38.4504 34.3839 38.7399 34.435L39.117 34.3215C39.117 34.3215 39.2427 34.2837 39.3684 34.2459C39.6198 34.1703 39.7455 34.1325 40.0351 34.1836C41.3492 36.2744 42.4881 38.6941 43.1241 41.2651C43.8478 43.6716 44.2324 46.3181 44.4533 48.8759C44.6056 49.3825 44.5065 49.9647 44.4075 50.547C44.4341 51.0914 44.3351 51.6736 44.3617 52.2181C44.2512 53.2181 44.1407 54.2181 43.8664 55.1292C43.7178 56.0026 43.4054 56.7871 43.093 57.5716C42.8682 58.1916 42.5177 58.8495 42.2929 59.4695C42.03 59.9629 41.7672 60.4563 41.4662 60.823C41.1653 61.1897 40.99 61.5186 40.7767 61.7209C40.35 62.1254 40.0491 62.4922 39.6224 62.8967C39.1958 63.3012 38.8567 63.5413 38.2662 63.857C37.7634 64.0082 37.3367 64.4127 36.8339 64.5639C36.3311 64.7151 35.8282 64.8663 35.3254 65.0175C34.4454 65.2822 33.5274 65.4201 32.3198 65.507C31.5274 65.6072 30.697 65.5807 29.5771 65.5032C28.7466 65.4767 28.0419 65.4124 27.3753 65.4747C26.6705 65.4104 25.9658 65.3461 25.4249 65.3707C24.884 65.3952 24.4687 65.382 24.2173 65.4576C24.0916 65.4954 23.9659 65.5332 23.8402 65.571L23.7145 65.6088C23.7145 65.6088 23.7907 65.8621 23.9925 66.0776C24.1944 66.2931 24.522 66.4709 25.0134 66.7374C25.5048 67.004 26.1219 67.2327 26.739 67.4615C27.4818 67.6525 28.2627 67.9701 29.1313 68.1232C30.1636 68.3652 31.1578 68.4806 32.152 68.5959C32.7311 68.698 33.3977 68.6357 33.9386 68.6111C34.6053 68.5488 35.2719 68.4864 35.8128 68.4618C36.3157 68.3106 36.8185 68.1594 37.3214 68.0082L37.4852 68.0971ZM43.1283 33.5296C43.6463 34.3406 44.0005 35.0628 44.3929 35.9116C45.1013 37.3558 45.6841 38.8379 46.1412 40.3578C46.5601 41.7511 46.9791 43.1443 47.1847 44.7398C47.2609 44.9931 47.3371 45.2464 47.4133 45.4997L47.4894 45.753C47.4894 45.753 47.4894 45.753 47.5275 45.8797C47.5275 45.8797 47.6037 46.133 47.6418 46.2597L47.718 46.513L47.7941 46.7663C47.7941 46.7663 47.9084 47.1463 47.9465 47.2729L48.0227 47.5262C48.0227 47.5262 48.0227 47.5262 48.0608 47.6529L48.2131 48.1595L48.1636 48.4507C48.1636 48.4507 48.1636 48.4507 48.2017 48.5773C48.3311 49.9195 48.2968 51.1728 48.1367 52.4639C48.0643 53.5906 47.8662 54.7551 47.6681 55.9196C47.4318 56.9574 47.1575 57.8685 46.8832 58.7797C46.5708 59.5642 46.2584 60.3487 45.8203 61.171C45.4698 61.8288 45.0812 62.36 44.6927 62.8912C44.3041 63.4224 44.0031 63.7891 43.7898 63.9914C43.2755 64.5604 42.7612 65.1294 42.0831 65.6095C41.5308 66.0518 40.8527 66.5319 40.2622 66.8476C39.0813 67.479 37.7366 68.0215 36.2776 68.184C35.1081 68.3975 33.9005 68.4845 32.6549 68.4447C31.6607 68.3294 30.6664 68.214 29.6341 67.972C28.7656 67.8189 28.0228 67.6279 27.2419 67.3103C26.6248 67.0815 26.0077 66.8528 25.5163 66.5862C25.0249 66.3196 24.6973 66.1419 24.4954 65.9264C24.2935 65.7109 24.1297 65.6221 24.2173 65.4576C24.2173 65.4576 24.2173 65.4576 24.343 65.4198C24.343 65.4198 24.5944 65.3442 24.7202 65.3064C24.9716 65.2308 25.3487 65.1174 25.9277 65.2195C26.4687 65.1949 27.1734 65.2592 27.8781 65.3235C28.5828 65.3878 29.2495 65.3254 30.0799 65.3519C31.1618 65.3028 31.9922 65.3293 32.8226 65.3558C33.9045 65.3067 34.9483 65.131 35.8282 64.8663C36.3311 64.7151 36.8339 64.5639 37.3367 64.4127C37.8396 64.2615 38.3043 63.9836 38.7691 63.7057C39.2338 63.4279 39.6986 63.15 40.1253 62.7455C40.5519 62.3409 40.9786 61.9364 41.2795 61.5697C41.4929 61.3674 41.6681 61.0385 41.9691 60.6718C42.27 60.3051 42.5329 59.8117 42.7958 59.3183C43.1462 58.6605 43.371 58.0404 43.5958 57.4204C43.9082 56.6359 44.0949 55.8892 44.3692 54.978C44.5178 54.1047 44.754 53.0669 44.8645 52.0668C44.876 51.6491 44.975 51.0668 44.9103 50.3957C44.8837 49.8513 44.9827 49.2691 44.9561 48.7246C44.861 46.1291 44.3506 43.5204 43.627 41.1139C43.208 39.7206 42.789 38.3274 42.1567 37.1365C41.6882 36.0343 41.1321 35.0967 40.5379 34.0324C40.5379 34.0324 40.7893 33.9568 40.915 33.919L41.1664 33.8434C42.0845 33.7054 42.9645 33.4408 43.7187 33.214C43.7187 33.214 43.7187 33.214 43.8444 33.1761L43.1283 33.5296ZM43.1283 33.5296C43.1283 33.5296 43.1283 33.5296 43.0026 33.5674C42.1226 33.832 41.2426 34.0967 40.4884 34.3235L40.2369 34.3991C40.2369 34.3991 39.9855 34.4747 39.8598 34.5125C39.7836 34.2592 39.5437 33.917 39.3418 33.7015C39.0637 33.2327 38.6599 32.8017 38.42 32.4595L38.6714 32.3839C38.6714 32.3839 38.7971 32.3461 38.9228 32.3083C38.9228 32.3083 39.1742 32.2327 39.2999 32.1949L39.5514 32.1193C39.6771 32.0815 39.8028 32.0437 39.9285 32.0059C40.557 31.8168 41.2237 31.7545 41.7265 31.6033C42.1684 32.1609 42.5226 32.8831 42.9645 33.4408L43.1283 33.5296ZM46.1467 0.718259C46.1467 0.718259 46.5124 1.02263 46.9923 1.70696C47.4342 2.26464 48.116 3.1645 48.9121 4.44432C49.392 5.12866 49.7463 5.8508 50.1386 6.6996C50.5309 7.5484 50.9613 8.52385 51.3537 9.37265C51.3537 9.37265 51.3537 9.37265 51.3918 9.49931C51.3918 9.49931 51.4298 9.62597 51.4679 9.75262C51.506 9.87928 51.5441 10.0059 51.5822 10.1326C51.5822 10.1326 51.6584 10.3859 51.6965 10.5126C51.6965 10.5126 51.7346 10.6392 51.7726 10.7659C51.8488 11.0192 51.925 11.2725 52.0393 11.6525C52.0393 11.6525 52.0393 11.6525 52.0773 11.7791L52.1535 12.0325L52.2678 12.4124L52.344 12.6657L52.4582 13.0457C52.4582 13.0457 52.5725 13.4257 52.6106 13.5523L52.6868 13.8057C52.6868 13.8057 52.6868 13.8057 52.7248 13.9323L52.9915 14.8189C52.9915 14.8189 52.8543 15.2745 52.8924 15.4012L53.0067 15.7811C53.0067 15.7811 52.9571 16.0722 52.9952 16.1989L53.1476 16.7055C53.1476 16.7055 53.0866 17.4144 53.0751 17.8322C53.0142 18.5411 52.9532 19.25 52.8922 19.9589C52.6445 21.4145 52.2711 22.9079 51.734 24.3124C51.1092 25.8814 50.2825 27.2349 49.292 28.4995C48.8158 29.1952 48.1758 29.802 47.5358 30.4088C46.8958 31.0155 46.2177 31.4957 45.4139 32.0136C44.7359 32.4938 43.894 32.885 43.1397 33.1118C42.8236 32.5164 42.3436 31.832 41.9018 31.2743C42.0275 31.2365 42.1532 31.1987 42.2789 31.1609C43.0331 30.9341 43.7874 30.7073 44.3398 30.265C44.9302 29.9493 45.6083 29.4692 46.1607 29.0268C46.7131 28.5845 47.2274 28.0155 47.7416 27.4465C48.6445 26.3464 49.3836 25.1573 50.0845 23.8416C50.6598 22.5638 51.1094 21.3237 51.357 19.8681C51.418 19.1592 51.5171 18.577 51.5781 17.8681C51.5019 17.6148 51.6771 17.2858 51.5629 16.9059L51.4486 16.5259L51.5743 16.4881C51.5743 16.4881 51.4981 16.2348 51.46 16.1081C51.46 16.1081 51.2696 15.4748 51.3191 15.1837L51.0525 14.2971L51.1782 14.2593C51.1782 14.2593 51.1782 14.2593 51.1401 14.1326L51.064 13.8793C51.064 13.8793 51.0259 13.7527 50.9878 13.626C50.9878 13.626 50.8354 13.1194 50.7974 12.9927C50.7593 12.8661 50.7212 12.7394 50.6831 12.6128L50.5688 12.2328C50.5688 12.2328 50.5307 12.1061 50.4926 11.9795C50.4926 11.9795 50.4926 11.9795 50.4546 11.8528C50.3784 11.5995 50.3022 11.3462 50.2641 11.2195C50.2641 11.2195 50.1879 10.9662 50.1499 10.8395C50.1499 10.8395 50.0737 10.5862 50.0356 10.4596C50.0356 10.4596 49.9594 10.2063 49.9213 10.0796C49.9213 10.0796 49.8832 9.95295 49.8452 9.82629C49.8452 9.82629 49.8452 9.82629 49.8071 9.69963C49.3119 8.05309 48.5654 6.48214 47.7807 4.78455C47.1103 3.46692 46.5542 2.52927 46.2 1.80713C46.299 1.22489 46.021 0.756062 46.1467 0.718259ZM38.3438 32.2062C38.3438 32.2062 39.0256 33.106 39.2656 33.4482C39.3418 33.7015 39.7075 34.0059 39.7836 34.2592C39.5322 34.3348 39.4065 34.3726 39.117 34.3215C39.117 34.3215 38.9913 34.3594 38.8656 34.3972L38.4884 34.5106C38.4884 34.5106 38.1989 34.4595 37.9094 34.4085C37.9094 34.4085 37.9094 34.4085 37.7837 34.4463C36.9533 34.4198 35.9971 34.4311 35.1286 34.2779C34.2601 34.1248 33.3916 33.9716 32.485 33.6918C31.5783 33.412 30.7098 33.2588 29.9289 32.9412C29.0223 32.6614 28.2033 32.2171 27.4224 31.8995C26.6034 31.4553 25.7844 31.011 24.9273 30.4401C24.5617 30.1357 24.0703 29.8691 23.7046 29.5648C23.3389 29.2604 22.9732 28.956 22.6075 28.6517C22.5694 28.525 22.4057 28.4361 22.2419 28.3473C22.2419 28.3473 22.2038 28.2206 22.1657 28.094C22.1657 28.094 22.1276 27.9673 21.9638 27.8785L21.8495 27.4985L21.56 27.4474L21.4458 27.0675L21.1182 26.8898C21.1182 26.8898 21.042 26.6364 20.9658 26.3831C20.8896 26.1298 20.6877 25.9143 20.5735 25.5343C20.4592 25.1544 20.383 24.901 20.2688 24.5211C20.2688 24.5211 20.2307 24.3944 20.1926 24.2678C20.1926 24.2678 20.1545 24.1411 20.1164 24.0144C20.0783 23.8878 20.1279 23.5967 20.2155 23.4322C20.2269 23.0144 20.4022 22.6855 20.7031 22.3188C20.8784 21.9899 21.2174 21.7498 21.5565 21.5097C21.8079 21.4341 22.1469 21.1941 22.3603 20.9918C22.8631 20.8406 23.3659 20.6894 23.9945 20.5004C24.4973 20.3491 25.0763 20.4512 25.6554 20.5533C25.6554 20.5533 25.6554 20.5533 25.7811 20.5155C25.7811 20.5155 25.7811 20.5155 25.9068 20.4777L26.0325 20.4399C26.0325 20.4399 26.3601 20.6176 26.4858 20.5798L26.6115 20.542C26.6115 20.542 26.9391 20.7197 27.1029 20.8086C27.1029 20.8086 27.1029 20.8086 27.2286 20.7708C27.48 20.6952 27.6819 20.9107 27.9714 20.9618C28.1352 21.0506 28.4247 21.1017 28.5885 21.1905L28.9161 21.3682L29.0418 21.3304C30.7674 22.0545 32.4054 22.9431 34.0434 23.8316C35.5557 24.7579 36.9803 25.8487 38.1916 27.1418C39.3649 28.3082 40.6143 29.728 41.5742 31.0966C40.9456 31.2857 40.4428 31.4369 39.7761 31.4992C39.6504 31.537 39.5247 31.5748 39.399 31.6126L39.1476 31.6882C39.1476 31.6882 38.8962 31.7638 38.7704 31.8016C38.7704 31.8016 38.6447 31.8395 38.519 31.8773L38.2676 31.9529C37.6239 31.1797 36.9801 30.4065 36.2107 29.6711C35.0374 28.5047 33.7766 27.5027 32.5538 26.6274C31.1673 25.6633 29.7312 24.9902 28.2951 24.3172L28.257 24.1906L27.3504 23.9107L26.7333 23.682C26.7333 23.682 26.7333 23.682 26.6076 23.7198C26.6076 23.7198 26.318 23.6687 26.1543 23.5799C26.1543 23.5799 26.0285 23.6177 25.8647 23.5288L25.6133 23.6044L25.4114 23.3889C25.1219 23.3379 24.7067 23.3246 24.4172 23.2736C24.1658 23.3492 23.7887 23.4626 23.5372 23.5382C23.4115 23.576 23.2858 23.6138 23.2858 23.6138C23.2858 23.6138 23.2858 23.6138 23.1601 23.6516C23.1601 23.6516 23.1982 23.7783 23.2363 23.9049C23.2363 23.9049 23.3125 24.1582 23.3505 24.2849C23.3505 24.2849 23.3886 24.4115 23.4267 24.5382L23.4648 24.6649L23.5791 25.0448L23.6933 25.4248C23.6933 25.4248 23.7314 25.5515 23.7695 25.6781C23.7695 25.6781 23.8076 25.8048 23.8457 25.9314C23.8457 25.9314 23.9219 26.1848 24.0476 26.1469C24.2876 26.4891 24.6151 26.6668 24.9808 26.9712C25.3084 27.1489 25.5484 27.4911 25.9141 27.7954C27.1368 28.6707 28.611 29.4704 30.2985 30.0678C31.0794 30.3855 31.8223 30.5764 32.7289 30.8562C33.6355 31.136 34.3783 31.327 35.083 31.3913C35.9515 31.5445 36.6563 31.6087 37.4867 31.6352C37.4867 31.6352 37.4867 31.6352 37.6124 31.5974C37.7381 31.5596 37.8638 31.5218 37.9895 31.484L38.3438 32.2062ZM23.1601 23.6516C23.1601 23.6516 23.6629 23.5004 23.9144 23.4248C24.1658 23.3492 24.581 23.3624 24.9086 23.5401L25.0343 23.5023L25.3619 23.68C25.3619 23.68 25.4876 23.6422 25.6514 23.7311C25.7771 23.6933 25.9409 23.7821 26.1047 23.871C26.1047 23.871 26.1047 23.871 26.2304 23.8332L26.8475 24.062L27.7541 24.3418C29.3159 24.977 30.6644 25.8145 32.0129 26.652C33.2357 27.5273 34.4965 28.5292 35.6697 29.6956C36.4392 30.431 37.0829 31.2042 37.7267 31.9774C37.601 32.0152 37.4753 32.053 37.3496 32.0908C37.3496 32.0908 37.3496 32.0908 37.2238 32.1286C36.3934 32.1021 35.6887 32.0378 34.8202 31.8847C34.0773 31.6937 33.2088 31.5406 32.466 31.3496C31.7232 31.1587 30.8166 30.8788 30.0357 30.5612C28.3482 29.9638 26.874 29.1641 25.6512 28.2888C25.2855 27.9845 24.9579 27.8067 24.718 27.4646C24.3523 27.1602 24.1504 26.9447 23.7847 26.6403C23.7847 26.6403 23.7085 26.387 23.5828 26.4248C23.5828 26.4248 23.5447 26.2982 23.5066 26.1715C23.5066 26.1715 23.4686 26.0448 23.4305 25.9182L23.3543 25.6649L23.1905 25.576L23.1143 25.3227L22.9124 25.1072L22.8363 24.8539C22.7982 24.7272 22.7601 24.6006 22.722 24.4739L22.6458 24.2206C22.6458 24.2206 22.6458 24.2206 22.7715 24.1828C22.7715 24.1828 22.8972 24.145 23.0229 24.1072C23.0229 24.1072 23.0229 24.1072 23.1487 24.0694L23.1601 23.6516Z" fill="#F79C53"></path></svg>